<?xml version="1.0" encoding="utf-8"?>
<!-- Generator: Adobe Illustrator 26.1.0, SVG Export Plug-In . SVG Version: 6.00 Build 0)  -->
<svg version="1.1" id="Layer_1" xmlns="http://www.w3.org/2000/svg" xmlns:xlink="http://www.w3.org/1999/xlink" x="0px" y="0px"
	 viewBox="0 0 1080 694.2" style="enable-background:new 0 0 1080 694.2;" xml:space="preserve">
<style type="text/css">
	.st0{fill:#0093ED;}
	.st1{fill:#FFFFFF;}
</style>
<g>
	<path class="st0" d="M632.1,303.4c-0.1-0.1-0.3-0.3-0.2-0.2C631.9,303.2,632,303.3,632.1,303.4
		C632.2,303.4,632.1,303.4,632.1,303.4z"/>
	<g>
		<path class="st1" d="M1006.3-0.2c-1.8,0-3.7,0-5.5,0C757.4-0.1,513.9,0,270.5,0.3c-5.5,0-11.1,0.7-16.5,2
			c-37.1,8.7-63.1,31.5-81.1,64.3c-7.6,13.8-10.7,29-14.7,44.1C110.7,289.3,62.8,467.8,14.9,646.3c-4.2,15.8-8.4,31.5-12.9,48.1
			c1.7-1.2,2.7-1.8,3.6-2.5C95.1,621.4,184.6,550.8,274,480.2c2-1.6,3.7-4.2,4.3-6.6c8.2-30.6,16.3-61.3,24.4-92
			c71.3,0,142.6,0,213.9,0c9.7-43.1,19.3-86.2,29-129.3c-69.4-0.1-138.9-0.3-208.3-0.4c2.8-10.1,5.5-20.2,8.3-30.3
			c1.9-6.9,4.9-13.8,8.7-19.7c11.2-17.3,26.7-28,48.2-28c83.1-0.1,166.2-0.2,249.3-0.3c1.5,0,3,0.1,5,0.2c-0.4,1.8-0.7,3.3-1.1,4.7
			c-10.7,39.9-21.3,79.8-32,119.7c-0.4,1.6-0.2,3.5-0.2,5.2c0.7-0.8,1.3-1.6,2.1-2.3c22.1-17.4,44.1-34.8,66.2-52.2
			C796.1,166.8,900.3,84.7,1004.4,2.6c0.9-0.7,2-1,3.1-1.5C1007.1,0.6,1006.7,0.2,1006.3-0.2z"/>
		<path class="st0" d="M623.7,303.4L623.7,303.4C623.6,303.4,623.6,303.4,623.7,303.4L623.7,303.4z"/>
		<polygon class="st0" points="508,391.3 508.2,391.4 508,391.2 		"/>
	</g>
	<g>
		<path class="st0" d="M73.7,694.4c1.8,0,3.7,0,5.5,0c243.4-0.1,486.9-0.3,730.3-0.5c5.5,0,11.1-0.7,16.5-2
			c37.1-8.7,63.1-31.5,81.1-64.3c7.6-13.8,10.7-29,14.7-44.1c47.6-178.6,95.5-357.1,143.3-535.6c4.2-15.8,8.4-31.5,12.9-48.1
			c-1.7,1.2-2.7,1.8-3.6,2.5C984.9,72.8,895.4,143.4,806,214c-2,1.6-3.7,4.2-4.3,6.6c-8.2,30.6-16.3,61.3-24.4,92
			c-71.3,0-142.6,0-213.9,0c-9.7,43.1-19.3,86.2-29,129.3c69.4,0.1,138.9,0.3,208.3,0.4c-2.8,10.1-5.5,20.2-8.3,30.3
			c-1.9,6.9-4.8,13.8-8.7,19.7c-11.2,17.3-26.7,28-48.2,28c-83.1,0.1-166.2,0.2-249.3,0.3c-1.5,0-3-0.1-5-0.2
			c0.4-1.8,0.7-3.3,1.1-4.7c10.7-39.9,21.4-79.8,32-119.7c0.4-1.6,0.2-3.5,0.2-5.2c-0.7,0.8-1.3,1.6-2.1,2.3
			c-22.1,17.4-44.1,34.8-66.2,52.2C283.9,527.4,179.7,609.5,75.6,691.6c-0.9,0.7-2.1,1-3.1,1.5C72.9,693.6,73.3,694,73.7,694.4z"/>
		<path class="st0" d="M385.9,390.8L385.9,390.8C385.9,390.8,385.9,390.8,385.9,390.8C385.9,390.8,385.9,390.8,385.9,390.8z"/>
		<polygon class="st0" points="501.5,302.9 501.3,302.8 501.5,302.9 		"/>
	</g>
</g>
</svg>
