<?xml version="1.0" encoding="utf-8"?>
<!-- Generator: Adobe Illustrator 26.1.0, SVG Export Plug-In . SVG Version: 6.00 Build 0)  -->
<svg version="1.1" id="Layer_1" xmlns="http://www.w3.org/2000/svg" xmlns:xlink="http://www.w3.org/1999/xlink" x="0px" y="0px"
	 viewBox="0 0 1080 694.15" style="enable-background:new 0 0 1080 694.15;" xml:space="preserve">
<style type="text/css">
	.st0{fill:#0093ED;}
	.st1{fill:#1C1C1C;}
</style>
<g>
	<path class="st0" d="M632.14,303.44c-0.14-0.13-0.28-0.26-0.2-0.19c-0.08-0.06,0.08,0.05,0.24,0.17
		C632.18,303.41,632.14,303.44,632.14,303.44z"/>
	<g>
		<path class="st1" d="M1006.33-0.23c-1.85,0-3.69,0-5.54,0C757.37-0.1,513.94,0.03,270.51,0.26c-5.5,0.01-11.12,0.73-16.48,1.99
			c-37.12,8.68-63.13,31.52-81.13,64.35c-7.57,13.81-10.67,29.05-14.69,44.13C110.66,289.31,62.76,467.81,14.94,646.33
			c-4.22,15.75-8.45,31.5-12.91,48.08c1.7-1.16,2.7-1.76,3.62-2.48c89.47-70.56,178.95-141.11,268.34-211.77
			c1.97-1.56,3.66-4.17,4.32-6.61c8.2-30.63,16.31-61.29,24.42-91.95c71.31,0,142.62,0,213.92,0
			c9.67-43.11,19.34-86.21,29.02-129.32c-69.44-0.14-138.87-0.27-208.31-0.41c2.75-10.09,5.51-20.18,8.32-30.26
			c1.91-6.88,4.85-13.78,8.74-19.74c11.24-17.26,26.74-27.99,48.18-28.03c83.1-0.13,166.19-0.24,249.29-0.34
			c1.51,0,3.01,0.13,5.05,0.22c-0.42,1.84-0.71,3.29-1.09,4.72c-10.66,39.91-21.35,79.81-31.96,119.74
			c-0.44,1.64-0.17,3.47-0.23,5.22c0.71-0.76,1.33-1.62,2.14-2.26c22.06-17.41,44.14-34.79,66.2-52.19
			C796.13,166.81,900.26,84.68,1004.41,2.57c0.88-0.69,2.05-1.02,3.08-1.51C1007.1,0.63,1006.72,0.2,1006.33-0.23z"/>
		<path class="st0" d="M623.65,303.41c0,0,0-0.01,0-0.01c-0.01,0.01-0.02,0.03-0.03,0.04C623.62,303.44,623.65,303.41,623.65,303.41
			z"/>
		<polygon class="st0" points="507.98,391.3 508.19,391.42 508.03,391.25 		"/>
	</g>
	<g>
		<path class="st0" d="M73.67,694.42c1.84,0,3.69,0,5.54,0c243.43-0.13,486.86-0.26,730.29-0.49c5.5-0.01,11.12-0.73,16.48-1.99
			c37.12-8.68,63.13-31.52,81.13-64.35c7.57-13.81,10.67-29.05,14.69-44.13c47.56-178.59,95.46-357.09,143.27-535.61
			c4.22-15.75,8.45-31.5,12.91-48.08c-1.7,1.16-2.7,1.76-3.62,2.48C984.88,72.8,895.4,143.36,806.01,214.02
			c-1.97,1.56-3.66,4.17-4.32,6.61c-8.2,30.63-16.31,61.29-24.42,91.95c-71.31,0-142.62,0-213.92,0
			c-9.67,43.11-19.34,86.21-29.02,129.32c69.44,0.14,138.87,0.27,208.31,0.41c-2.75,10.09-5.51,20.18-8.32,30.26
			c-1.91,6.88-4.85,13.78-8.74,19.74c-11.24,17.26-26.74,27.99-48.18,28.03c-83.1,0.13-166.19,0.24-249.29,0.34
			c-1.51,0-3.01-0.13-5.05-0.22c0.42-1.84,0.71-3.29,1.09-4.72c10.66-39.91,21.35-79.81,31.96-119.74c0.44-1.64,0.17-3.47,0.23-5.22
			c-0.71,0.76-1.33,1.62-2.14,2.26c-22.06,17.41-44.14,34.79-66.2,52.19C283.87,527.37,179.74,609.51,75.59,691.62
			c-0.88,0.69-2.05,1.02-3.08,1.51C72.9,693.56,73.28,693.99,73.67,694.42z"/>
		<path class="st0" d="M385.87,390.77c0,0,0,0.01,0,0.01c0.01-0.01,0.02-0.03,0.03-0.04C385.91,390.75,385.87,390.77,385.87,390.77z
			"/>
		<polygon class="st0" points="501.55,302.88 501.34,302.77 501.5,302.93 		"/>
	</g>
</g>
</svg>
