<?xml version="1.0" encoding="utf-8"?>
<!-- Generator: Adobe Illustrator 26.1.0, SVG Export Plug-In . SVG Version: 6.00 Build 0)  -->
<svg version="1.1" id="Layer_1" transform="rotate(0)matrix(1, 0, 0, 1, 0, 0)"
	 xmlns="http://www.w3.org/2000/svg" xmlns:xlink="http://www.w3.org/1999/xlink" x="0px" y="0px" viewBox="0 0 24 23.6"
	 style="enable-background:new 0 0 24 23.6;" xml:space="preserve">
<style type="text/css">
	.st0{fill:#FFFFFF;}
	.st1{enable-background:new    ;}
</style>
<g id="SVGRepo_bgCarrier">
</g>
<g>
	<path class="st0" d="M16.3,12.4H1.8c-0.3,0-0.6-0.3-0.6-0.6c0-0.3,0.3-0.6,0.6-0.6h14.5c0.3,0,0.6,0.3,0.6,0.6
		C16.8,12.1,16.6,12.4,16.3,12.4z"/>
</g>
<g>
	<path class="st0" d="M12.8,15.9c-0.1,0-0.3-0.1-0.4-0.2c-0.2-0.2-0.2-0.6,0-0.8l3.1-3.1l-3.1-3.1c-0.2-0.2-0.2-0.6,0-0.8
		c0.2-0.2,0.6-0.2,0.8,0l3.5,3.5c0.1,0.1,0.2,0.2,0.2,0.4s-0.1,0.3-0.2,0.4l-3.5,3.5C13,15.8,12.9,15.9,12.8,15.9z"/>
</g>
<g class="st1">
	<path class="st0" d="M17.8,23.5h-5.9c-2.8,0-5-2.2-5-5v-1.1c0-0.3,0.3-0.6,0.6-0.6c0.3,0,0.6,0.3,0.6,0.6v1.1
		c0,2.1,1.7,3.9,3.9,3.9h5.9c2.1,0,3.9-1.7,3.9-3.9V5.1c0-2.1-1.7-3.9-3.9-3.9h-5.9C9.8,1.2,8,3,8,5.1v1.1c0,0.3-0.3,0.6-0.6,0.6
		c-0.3,0-0.6-0.3-0.6-0.6V5.1c0-2.8,2.2-5,5-5h5.9c2.8,0,5,2.2,5,5v13.4C22.8,21.3,20.5,23.5,17.8,23.5z"/>
</g>
</svg>
